M48
;GenerationSoftware,Autodesk,EAGLE,9.6.2*%
;CreationDate,2021-11-08T08:08:03Z*%
FMAT,2
ICI,OFF
METRIC,TZ,000.000
T9C0.350
T8C0.400
T7C0.450
T6C0.600
T5C0.800
T4C1.016
T3C1.092
T2C1.270
T1C1.778
%
G90
M71
T1
X90414Y43952
X95514Y43952
X95514Y38852
X90414Y38852
X90541Y53858
X90541Y58791
X95641Y58791
X95641Y63891
X90541Y63891
X90541Y48758
X95641Y48758
X95641Y53858
X90160Y15250
X95260Y15250
X95260Y10150
X90160Y10150
T2
X92964Y41402
X93091Y51308
X93091Y61341
X92710Y12700
T3
X11430Y97790
X29210Y91440
X21590Y91440
X13970Y91440
X11430Y91440
X29210Y85090
X21590Y85090
X13970Y85090
X72390Y91440
X64770Y91440
X57150Y91440
X54610Y91440
X29210Y78740
X21590Y78740
X13970Y78740
X11430Y78740
X29210Y72390
X21590Y72390
X13970Y72390
X11430Y72390
X29210Y66040
X21590Y66040
X13970Y66040
X11430Y66040
X29210Y59690
X21590Y59690
X13970Y59690
X11430Y59690
X29210Y53340
X21590Y53340
X13970Y53340
X11430Y85090
X11430Y53340
X29210Y46990
X21590Y46990
X13970Y46990
X11430Y46990
X29210Y40640
X21590Y40640
X13970Y40640
X29210Y34290
X21590Y34290
X13970Y34290
X11430Y34290
X29210Y27940
X21590Y27940
X13970Y27940
X11430Y27940
X29210Y21590
X21590Y21590
X13970Y21590
X11430Y21590
X72390Y85090
X64770Y85090
X57150Y85090
X54610Y85090
X29210Y15240
X21590Y15240
X13970Y15240
X11430Y15240
X29210Y8890
X21590Y8890
X13970Y8890
X11430Y8890
X29210Y2540
X21590Y2540
X13970Y2540
X11430Y2540
X72390Y78740
X64770Y78740
X54610Y78740
X72390Y72390
X64770Y72390
X57150Y72390
X54610Y72390
X72390Y66040
X64770Y66040
X57150Y66040
X54610Y66040
X72390Y59690
X64770Y59690
X57150Y59690
X54610Y59690
X72390Y53340
X72390Y27940
X64770Y53340
X57150Y53340
X54610Y53340
X72390Y46990
X64770Y46990
X57150Y46990
X54610Y46990
X57150Y78740
X72390Y97790
X64770Y97790
X57150Y97790
X54610Y97790
X72390Y40640
X64770Y40640
X57150Y40640
X54610Y40640
X72390Y34290
X64770Y34290
X57150Y34290
X54610Y34290
X11430Y40640
X64770Y27940
X57150Y27940
X54610Y27940
X72390Y21590
X64770Y21590
X57150Y21590
X54610Y21590
X72390Y15240
X64770Y15240
X57150Y15240
X54610Y15240
X72390Y8890
X64770Y8890
X57150Y8890
X54610Y8890
X72390Y2540
X64770Y2540
X57150Y2540
X54610Y2540
X29210Y97790
X21590Y97790
X13970Y97790
T4
X40640Y3810
X43180Y3810
X45720Y3810
X77470Y3810
X80010Y3810
X82550Y3810
X85090Y3810
X4572Y85090
X4445Y31750
X4445Y29210
X4445Y34290
X4445Y26670
X4445Y24130
X4445Y21590
X4445Y19050
X80010Y50800
X80137Y61341
X87630Y3810
X90170Y3810
X4445Y36830
X4572Y69850
X4572Y72390
X4572Y74930
X4572Y77470
X4572Y80010
X4572Y82550
X4572Y87630
X38100Y3810
T5
X80772Y7874
X74168Y10922
T6
X30480Y19050
X50800Y25400
X30480Y26543
X50800Y31750
X30480Y31750
X51562Y38227
X30226Y38227
X51435Y44450
X30480Y44450
X51308Y61722
X31750Y58420
X51054Y51054
X30480Y51054
X50800Y6350
X30480Y6350
X49530Y16510
X30480Y16510
X50800Y19050
T7
X50292Y49911
T8
X26670Y22860
X31496Y25654
X25146Y7366
X24130Y21590
X36068Y26924
X30480Y33020
X36957Y35941
X40259Y48895
X27940Y52070
X25400Y54610
X25400Y55880
X36195Y49022
X25400Y59690
X25400Y61214
X24130Y66040
T9
X73660Y22860
X77216Y11430
X75057Y20828
X86360Y15113
X76200Y15875
X45720Y39370
X39370Y40640
X71120Y36068
X71501Y13589
X74930Y40640
X87630Y11430
X39370Y17653
X46736Y12827
X39370Y7620
X48260Y58420
X69342Y20320
X70358Y30480
X87630Y34290
X64262Y18542
X70358Y31750
X67818Y29210
X66929Y33782
X70866Y49911
X67310Y95250
X71120Y57023
X84455Y16383
X79883Y18796
X47244Y39370
X70231Y19431
X40005Y43180
X84836Y18415
X25400Y63500
X27940Y63500
X69469Y36195
X69850Y46990
X70993Y48133
X70866Y51689
X70739Y55372
X69850Y82550
M30