G04 EAGLE Gerber RS-274X export*
G75*
%MOMM*%
%FSLAX34Y34*%
%LPD*%
%INSoldermask Top*%
%IPPOS*%
%AMOC8*
5,1,8,0,0,1.08239X$1,22.5*%
G01*
%ADD10C,2.108200*%
%ADD11C,2.870200*%
%ADD12C,1.727200*%
%ADD13P,1.869504X8X22.500000*%
%ADD14C,1.841500*%
%ADD15R,1.792200X0.735800*%
%ADD16C,0.653200*%
%ADD17C,0.959600*%
%ADD18C,1.009600*%
%ADD19C,1.409600*%
%ADD20C,1.059600*%
%ADD21C,1.209600*%


D10*
X927100Y127000D03*
D11*
X901601Y152499D03*
X952599Y152499D03*
X952599Y101501D03*
X901601Y101501D03*
D10*
X929640Y414020D03*
D11*
X904141Y439519D03*
X955139Y439519D03*
X955139Y388521D03*
X904141Y388521D03*
D12*
X850900Y45720D02*
X850900Y30480D01*
X825500Y30480D02*
X825500Y45720D01*
X800100Y45720D02*
X800100Y30480D01*
X774700Y30480D02*
X774700Y45720D01*
X457200Y45720D02*
X457200Y30480D01*
X431800Y30480D02*
X431800Y45720D01*
X406400Y45720D02*
X406400Y30480D01*
X381000Y30480D02*
X381000Y45720D01*
X53340Y876300D02*
X38100Y876300D01*
X38100Y850900D02*
X53340Y850900D01*
X53340Y825500D02*
X38100Y825500D01*
X38100Y800100D02*
X53340Y800100D01*
X53340Y774700D02*
X38100Y774700D01*
X38100Y749300D02*
X53340Y749300D01*
X53340Y723900D02*
X38100Y723900D01*
X38100Y698500D02*
X53340Y698500D01*
X52070Y368300D02*
X36830Y368300D01*
X36830Y342900D02*
X52070Y342900D01*
X52070Y317500D02*
X36830Y317500D01*
X36830Y292100D02*
X52070Y292100D01*
X52070Y266700D02*
X36830Y266700D01*
X36830Y241300D02*
X52070Y241300D01*
X52070Y215900D02*
X36830Y215900D01*
X36830Y190500D02*
X52070Y190500D01*
D13*
X800100Y508000D03*
X801370Y613410D03*
D12*
X876300Y45720D02*
X876300Y30480D01*
X901700Y30480D02*
X901700Y45720D01*
D14*
X723900Y977900D03*
X647700Y977900D03*
X571500Y977900D03*
X546100Y977900D03*
X723900Y406400D03*
X647700Y406400D03*
X571500Y406400D03*
X546100Y406400D03*
X723900Y342900D03*
X647700Y342900D03*
X571500Y342900D03*
X546100Y342900D03*
X723900Y279400D03*
X647700Y279400D03*
X571500Y279400D03*
X546100Y279400D03*
X723900Y215900D03*
X647700Y215900D03*
X571500Y215900D03*
X546100Y215900D03*
X723900Y152400D03*
X647700Y152400D03*
X571500Y152400D03*
X546100Y152400D03*
X723900Y88900D03*
X647700Y88900D03*
X571500Y88900D03*
X546100Y88900D03*
X723900Y25400D03*
X647700Y25400D03*
X571500Y25400D03*
X546100Y25400D03*
X292100Y977900D03*
X215900Y977900D03*
X139700Y977900D03*
X114300Y977900D03*
X292100Y914400D03*
X215900Y914400D03*
X139700Y914400D03*
X114300Y914400D03*
X292100Y850900D03*
X215900Y850900D03*
X139700Y850900D03*
X114300Y850900D03*
X723900Y914400D03*
X647700Y914400D03*
X571500Y914400D03*
X546100Y914400D03*
X292100Y787400D03*
X215900Y787400D03*
X139700Y787400D03*
X114300Y787400D03*
X292100Y723900D03*
X215900Y723900D03*
X139700Y723900D03*
X114300Y723900D03*
X292100Y660400D03*
X215900Y660400D03*
X139700Y660400D03*
X114300Y660400D03*
X292100Y596900D03*
X215900Y596900D03*
X139700Y596900D03*
X114300Y596900D03*
X292100Y533400D03*
X215900Y533400D03*
X139700Y533400D03*
X114300Y533400D03*
X292100Y469900D03*
X215900Y469900D03*
X139700Y469900D03*
X114300Y469900D03*
X292100Y406400D03*
X215900Y406400D03*
X139700Y406400D03*
X114300Y406400D03*
X292100Y342900D03*
X215900Y342900D03*
X139700Y342900D03*
X114300Y342900D03*
X292100Y279400D03*
X215900Y279400D03*
X139700Y279400D03*
X114300Y279400D03*
X292100Y215900D03*
X215900Y215900D03*
X139700Y215900D03*
X114300Y215900D03*
X723900Y850900D03*
X647700Y850900D03*
X571500Y850900D03*
X546100Y850900D03*
X292100Y152400D03*
X215900Y152400D03*
X139700Y152400D03*
X114300Y152400D03*
X292100Y88900D03*
X215900Y88900D03*
X139700Y88900D03*
X114300Y88900D03*
X292100Y25400D03*
X215900Y25400D03*
X139700Y25400D03*
X114300Y25400D03*
X723900Y787400D03*
X647700Y787400D03*
X571500Y787400D03*
X546100Y787400D03*
X723900Y723900D03*
X647700Y723900D03*
X571500Y723900D03*
X546100Y723900D03*
X723900Y660400D03*
X647700Y660400D03*
X571500Y660400D03*
X546100Y660400D03*
X723900Y596900D03*
X647700Y596900D03*
X571500Y596900D03*
X546100Y596900D03*
X723900Y533400D03*
X647700Y533400D03*
X571500Y533400D03*
X546100Y533400D03*
X723900Y469900D03*
X647700Y469900D03*
X571500Y469900D03*
X546100Y469900D03*
D10*
X930910Y613410D03*
D11*
X905411Y638909D03*
X956409Y638909D03*
X956409Y587911D03*
X905411Y587911D03*
D10*
X930910Y513080D03*
D11*
X905411Y538579D03*
X956409Y538579D03*
X956409Y487581D03*
X905411Y487581D03*
D15*
X478917Y425450D03*
X478917Y438150D03*
X478917Y450850D03*
X478917Y463550D03*
X478917Y476250D03*
X478917Y488950D03*
X478917Y501650D03*
X478917Y514350D03*
X478917Y527050D03*
X478917Y539750D03*
X478917Y552450D03*
X478917Y565150D03*
X384683Y565150D03*
X384683Y552450D03*
X384683Y539750D03*
X384683Y527050D03*
X384683Y514350D03*
X384683Y501650D03*
X384683Y488950D03*
X384683Y476250D03*
X384683Y463550D03*
X384683Y450850D03*
X384683Y438150D03*
X384683Y425450D03*
X872617Y184150D03*
X872617Y196850D03*
X872617Y209550D03*
X872617Y222250D03*
X872617Y234950D03*
X872617Y247650D03*
X872617Y260350D03*
X872617Y273050D03*
X872617Y285750D03*
X872617Y298450D03*
X872617Y311150D03*
X872617Y323850D03*
X778383Y323850D03*
X778383Y311150D03*
X778383Y298450D03*
X778383Y285750D03*
X778383Y273050D03*
X778383Y260350D03*
X778383Y247650D03*
X778383Y234950D03*
X778383Y222250D03*
X778383Y209550D03*
X778383Y196850D03*
X778383Y184150D03*
D16*
X394350Y149750D02*
X384850Y149750D01*
X384850Y143250D02*
X394350Y143250D01*
X394350Y136750D02*
X384850Y136750D01*
X384850Y130250D02*
X394350Y130250D01*
X394350Y123750D02*
X384850Y123750D01*
X384850Y117250D02*
X394350Y117250D01*
X394350Y110750D02*
X384850Y110750D01*
X384850Y104250D02*
X394350Y104250D01*
X443850Y104250D02*
X453350Y104250D01*
X453350Y110750D02*
X443850Y110750D01*
X443850Y117250D02*
X453350Y117250D01*
X453350Y123750D02*
X443850Y123750D01*
X443850Y130250D02*
X453350Y130250D01*
X453350Y136750D02*
X443850Y136750D01*
X443850Y143250D02*
X453350Y143250D01*
X453350Y149750D02*
X443850Y149750D01*
X791250Y137050D02*
X800750Y137050D01*
X800750Y130550D02*
X791250Y130550D01*
X791250Y124050D02*
X800750Y124050D01*
X800750Y117550D02*
X791250Y117550D01*
X791250Y111050D02*
X800750Y111050D01*
X800750Y104550D02*
X791250Y104550D01*
X791250Y98050D02*
X800750Y98050D01*
X800750Y91550D02*
X791250Y91550D01*
X850250Y91550D02*
X859750Y91550D01*
X859750Y98050D02*
X850250Y98050D01*
X850250Y104550D02*
X859750Y104550D01*
X859750Y111050D02*
X850250Y111050D01*
X850250Y117550D02*
X859750Y117550D01*
X859750Y124050D02*
X850250Y124050D01*
X850250Y130550D02*
X859750Y130550D01*
X859750Y137050D02*
X850250Y137050D01*
D17*
X702310Y194310D03*
X693420Y203200D03*
X703580Y304800D03*
X642620Y185420D03*
X703580Y317500D03*
X678180Y292100D03*
X669290Y337820D03*
X673100Y952500D03*
X711200Y570230D03*
X698500Y825500D03*
X707390Y553720D03*
X708660Y516890D03*
X708660Y499110D03*
X709930Y481330D03*
X698500Y469900D03*
X694690Y361950D03*
X279400Y635000D03*
X254000Y635000D03*
D18*
X241300Y660400D03*
X254000Y612140D03*
X254000Y596900D03*
X254000Y558800D03*
X254000Y546100D03*
X279400Y520700D03*
X361950Y490220D03*
X402590Y488950D03*
X369570Y359410D03*
X304800Y330200D03*
X360680Y269240D03*
X314960Y256540D03*
X241300Y215900D03*
X266700Y228600D03*
X251460Y73660D03*
D17*
X482600Y584200D03*
X393700Y76200D03*
X467360Y128270D03*
X876300Y342900D03*
D19*
X807720Y78740D03*
X741680Y109220D03*
D20*
X502920Y499110D03*
D21*
X513080Y617220D03*
X317500Y584200D03*
X510540Y510540D03*
X304800Y510540D03*
X508000Y63500D03*
X304800Y63500D03*
X495300Y165100D03*
X304800Y165100D03*
X508000Y190500D03*
X304800Y190500D03*
X508000Y254000D03*
X304800Y265430D03*
X508000Y317500D03*
X304800Y317500D03*
X515620Y382270D03*
X302260Y382270D03*
X514350Y444500D03*
X304800Y444500D03*
D17*
X844550Y163830D03*
X798830Y187960D03*
X472440Y393700D03*
X400050Y431800D03*
X848360Y184150D03*
X736600Y228600D03*
X772160Y114300D03*
X750570Y208280D03*
X863600Y151130D03*
X762000Y158750D03*
X457200Y393700D03*
X393700Y406400D03*
X393700Y176530D03*
X711200Y360680D03*
X715010Y135890D03*
X749300Y406400D03*
X876300Y114300D03*
M02*
