G04 EAGLE Gerber RS-274X export*
G75*
%MOMM*%
%FSLAX34Y34*%
%LPD*%
%INSolderpaste Top*%
%IPPOS*%
%AMOC8*
5,1,8,0,0,1.08239X$1,22.5*%
G01*
%ADD10R,1.589000X0.532600*%
%ADD11C,0.450000*%


D10*
X478917Y425450D03*
X478917Y438150D03*
X478917Y450850D03*
X478917Y463550D03*
X478917Y476250D03*
X478917Y488950D03*
X478917Y501650D03*
X478917Y514350D03*
X478917Y527050D03*
X478917Y539750D03*
X478917Y552450D03*
X478917Y565150D03*
X384683Y565150D03*
X384683Y552450D03*
X384683Y539750D03*
X384683Y527050D03*
X384683Y514350D03*
X384683Y501650D03*
X384683Y488950D03*
X384683Y476250D03*
X384683Y463550D03*
X384683Y450850D03*
X384683Y438150D03*
X384683Y425450D03*
X872617Y184150D03*
X872617Y196850D03*
X872617Y209550D03*
X872617Y222250D03*
X872617Y234950D03*
X872617Y247650D03*
X872617Y260350D03*
X872617Y273050D03*
X872617Y285750D03*
X872617Y298450D03*
X872617Y311150D03*
X872617Y323850D03*
X778383Y323850D03*
X778383Y311150D03*
X778383Y298450D03*
X778383Y285750D03*
X778383Y273050D03*
X778383Y260350D03*
X778383Y247650D03*
X778383Y234950D03*
X778383Y222250D03*
X778383Y209550D03*
X778383Y196850D03*
X778383Y184150D03*
D11*
X394350Y149750D02*
X384850Y149750D01*
X384850Y143250D02*
X394350Y143250D01*
X394350Y136750D02*
X384850Y136750D01*
X384850Y130250D02*
X394350Y130250D01*
X394350Y123750D02*
X384850Y123750D01*
X384850Y117250D02*
X394350Y117250D01*
X394350Y110750D02*
X384850Y110750D01*
X384850Y104250D02*
X394350Y104250D01*
X443850Y104250D02*
X453350Y104250D01*
X453350Y110750D02*
X443850Y110750D01*
X443850Y117250D02*
X453350Y117250D01*
X453350Y123750D02*
X443850Y123750D01*
X443850Y130250D02*
X453350Y130250D01*
X453350Y136750D02*
X443850Y136750D01*
X443850Y143250D02*
X453350Y143250D01*
X453350Y149750D02*
X443850Y149750D01*
X791250Y137050D02*
X800750Y137050D01*
X800750Y130550D02*
X791250Y130550D01*
X791250Y124050D02*
X800750Y124050D01*
X800750Y117550D02*
X791250Y117550D01*
X791250Y111050D02*
X800750Y111050D01*
X800750Y104550D02*
X791250Y104550D01*
X791250Y98050D02*
X800750Y98050D01*
X800750Y91550D02*
X791250Y91550D01*
X850250Y91550D02*
X859750Y91550D01*
X859750Y98050D02*
X850250Y98050D01*
X850250Y104550D02*
X859750Y104550D01*
X859750Y111050D02*
X850250Y111050D01*
X850250Y117550D02*
X859750Y117550D01*
X859750Y124050D02*
X850250Y124050D01*
X850250Y130550D02*
X859750Y130550D01*
X859750Y137050D02*
X850250Y137050D01*
M02*
